<mxfile host="app.diagrams.net" modified="2022-01-23T20:32:36.925Z" agent="5.0 (Windows NT 10.0; Win64; x64) AppleWebKit/537.36 (KHTML, like Gecko) Chrome/97.0.4692.99 Safari/537.36" etag="_MK-3Cv1B7HyxszKWdI_" version="16.4.5" type="github">
  <diagram id="iZqzLyhIi8D4mTh6weEC" name="Page-1">
    <mxGraphModel dx="868" dy="428" grid="1" gridSize="10" guides="1" tooltips="1" connect="1" arrows="1" fold="1" page="1" pageScale="1" pageWidth="827" pageHeight="1169" math="0" shadow="0">
      <root>
        <mxCell id="0" />
        <mxCell id="1" parent="0" />
        <mxCell id="DPn4yQn2_Y9NsE6lSIu0-1" value="" style="shape=mxgraph.cisco.routers.router;sketch=0;html=1;pointerEvents=1;dashed=0;fillColor=#036897;strokeColor=#ffffff;strokeWidth=2;verticalLabelPosition=bottom;verticalAlign=top;align=center;outlineConnect=0;" parent="1" vertex="1">
          <mxGeometry x="340" y="191.5" width="78" height="53" as="geometry" />
        </mxCell>
        <mxCell id="DPn4yQn2_Y9NsE6lSIu0-2" value="" style="shape=mxgraph.cisco.switches.workgroup_switch;sketch=0;html=1;pointerEvents=1;dashed=0;fillColor=#036897;strokeColor=#ffffff;strokeWidth=2;verticalLabelPosition=bottom;verticalAlign=top;align=center;outlineConnect=0;" parent="1" vertex="1">
          <mxGeometry x="160" y="191.5" width="100" height="50" as="geometry" />
        </mxCell>
        <mxCell id="DPn4yQn2_Y9NsE6lSIu0-6" value="" style="shape=mxgraph.cisco.computers_and_peripherals.macintosh;sketch=0;html=1;pointerEvents=1;dashed=0;fillColor=#036897;strokeColor=#ffffff;strokeWidth=2;verticalLabelPosition=bottom;verticalAlign=top;align=center;outlineConnect=0;" parent="1" vertex="1">
          <mxGeometry x="10" y="20" width="99" height="64" as="geometry" />
        </mxCell>
        <mxCell id="DPn4yQn2_Y9NsE6lSIu0-7" value="" style="shape=mxgraph.cisco.computers_and_peripherals.macintosh;sketch=0;html=1;pointerEvents=1;dashed=0;fillColor=#036897;strokeColor=#ffffff;strokeWidth=2;verticalLabelPosition=bottom;verticalAlign=top;align=center;outlineConnect=0;" parent="1" vertex="1">
          <mxGeometry x="10" y="320" width="99" height="64" as="geometry" />
        </mxCell>
        <mxCell id="DPn4yQn2_Y9NsE6lSIu0-12" value="" style="endArrow=classic;html=1;rounded=0;fillColor=#FF0D0D;shape=link;" parent="1" source="DPn4yQn2_Y9NsE6lSIu0-6" target="DPn4yQn2_Y9NsE6lSIu0-2" edge="1">
          <mxGeometry width="50" height="50" relative="1" as="geometry">
            <mxPoint x="100" y="94.00000000000006" as="sourcePoint" />
            <mxPoint x="155.6895719844357" y="164.8" as="targetPoint" />
          </mxGeometry>
        </mxCell>
        <mxCell id="DPn4yQn2_Y9NsE6lSIu0-13" value="" style="endArrow=classic;html=1;rounded=0;fillColor=#FF0D0D;shape=link;" parent="1" source="DPn4yQn2_Y9NsE6lSIu0-2" target="DPn4yQn2_Y9NsE6lSIu0-7" edge="1">
          <mxGeometry width="50" height="50" relative="1" as="geometry">
            <mxPoint x="109.99999999999994" y="250.00000000000006" as="sourcePoint" />
            <mxPoint x="165.6895719844357" y="320.8" as="targetPoint" />
          </mxGeometry>
        </mxCell>
        <mxCell id="DPn4yQn2_Y9NsE6lSIu0-14" value="" style="endArrow=classic;html=1;rounded=0;fillColor=#FF0D0D;shape=link;exitX=0.98;exitY=0.5;exitDx=0;exitDy=0;exitPerimeter=0;entryX=0;entryY=0.5;entryDx=0;entryDy=0;entryPerimeter=0;" parent="1" source="DPn4yQn2_Y9NsE6lSIu0-2" target="DPn4yQn2_Y9NsE6lSIu0-1" edge="1">
          <mxGeometry width="50" height="50" relative="1" as="geometry">
            <mxPoint x="289.99999999999994" y="182.60000000000005" as="sourcePoint" />
            <mxPoint x="345.6895719844357" y="253.4" as="targetPoint" />
          </mxGeometry>
        </mxCell>
        <mxCell id="0L6uGiEx3E2wU8liYid6-1" value=".88.2" style="text;html=1;resizable=0;autosize=1;align=center;verticalAlign=middle;points=[];fillColor=none;strokeColor=none;rounded=0;" parent="1" vertex="1">
          <mxGeometry x="120" y="364" width="40" height="20" as="geometry" />
        </mxCell>
        <mxCell id="0L6uGiEx3E2wU8liYid6-2" value=".88.1" style="text;html=1;resizable=0;autosize=1;align=center;verticalAlign=middle;points=[];fillColor=none;strokeColor=none;rounded=0;" parent="1" vertex="1">
          <mxGeometry x="120" y="84" width="40" height="20" as="geometry" />
        </mxCell>
        <mxCell id="0L6uGiEx3E2wU8liYid6-3" value="192.168.88.XX" style="text;html=1;resizable=0;autosize=1;align=center;verticalAlign=middle;points=[];fillColor=none;strokeColor=none;rounded=0;" parent="1" vertex="1">
          <mxGeometry x="165" y="140" width="90" height="20" as="geometry" />
        </mxCell>
        <mxCell id="0L6uGiEx3E2wU8liYid6-4" value=".255.254" style="text;html=1;resizable=0;autosize=1;align=center;verticalAlign=middle;points=[];fillColor=none;strokeColor=none;rounded=0;" parent="1" vertex="1">
          <mxGeometry x="290" y="160" width="60" height="20" as="geometry" />
        </mxCell>
        <mxCell id="0L6uGiEx3E2wU8liYid6-6" value="" style="endArrow=none;dashed=1;html=1;rounded=0;shape=link;entryX=0;entryY=0.5;entryDx=0;entryDy=0;entryPerimeter=0;" parent="1" source="DPn4yQn2_Y9NsE6lSIu0-1" target="pGYjlj7JNuYmJzxzHvzT-10" edge="1">
          <mxGeometry width="50" height="50" relative="1" as="geometry">
            <mxPoint x="530" y="230" as="sourcePoint" />
            <mxPoint x="560" y="220" as="targetPoint" />
          </mxGeometry>
        </mxCell>
        <mxCell id="0L6uGiEx3E2wU8liYid6-7" value="" style="endArrow=none;dashed=1;html=1;rounded=0;shape=link;" parent="1" edge="1">
          <mxGeometry width="50" height="50" relative="1" as="geometry">
            <mxPoint x="500" y="220" as="sourcePoint" />
            <mxPoint x="500" y="120" as="targetPoint" />
          </mxGeometry>
        </mxCell>
        <mxCell id="0L6uGiEx3E2wU8liYid6-8" value="" style="endArrow=none;dashed=1;html=1;rounded=0;shape=link;" parent="1" edge="1">
          <mxGeometry width="50" height="50" relative="1" as="geometry">
            <mxPoint x="500" y="320" as="sourcePoint" />
            <mxPoint x="500" y="220" as="targetPoint" />
          </mxGeometry>
        </mxCell>
        <mxCell id="0L6uGiEx3E2wU8liYid6-9" value="" style="shape=mxgraph.cisco.servers.fileserver;sketch=0;html=1;pointerEvents=1;dashed=0;fillColor=#036897;strokeColor=#ffffff;strokeWidth=2;verticalLabelPosition=bottom;verticalAlign=top;align=center;outlineConnect=0;" parent="1" vertex="1">
          <mxGeometry x="480" y="58" width="43" height="62" as="geometry" />
        </mxCell>
        <mxCell id="0L6uGiEx3E2wU8liYid6-10" value="" style="shape=mxgraph.cisco.servers.fileserver;sketch=0;html=1;pointerEvents=1;dashed=0;fillColor=#036897;strokeColor=#ffffff;strokeWidth=2;verticalLabelPosition=bottom;verticalAlign=top;align=center;outlineConnect=0;" parent="1" vertex="1">
          <mxGeometry x="480" y="320" width="43" height="62" as="geometry" />
        </mxCell>
        <mxCell id="0L6uGiEx3E2wU8liYid6-11" value="Server DHCP" style="text;html=1;resizable=0;autosize=1;align=center;verticalAlign=middle;points=[];fillColor=none;strokeColor=none;rounded=0;" parent="1" vertex="1">
          <mxGeometry x="520" y="110" width="90" height="20" as="geometry" />
        </mxCell>
        <mxCell id="0L6uGiEx3E2wU8liYid6-12" value="Server DNS" style="text;html=1;resizable=0;autosize=1;align=center;verticalAlign=middle;points=[];fillColor=none;strokeColor=none;rounded=0;" parent="1" vertex="1">
          <mxGeometry x="528" y="362" width="80" height="20" as="geometry" />
        </mxCell>
        <mxCell id="pGYjlj7JNuYmJzxzHvzT-1" value="10.202.0.196" style="text;html=1;align=center;verticalAlign=middle;resizable=0;points=[];autosize=1;strokeColor=none;fillColor=none;" parent="1" vertex="1">
          <mxGeometry x="375" y="160" width="90" height="20" as="geometry" />
        </mxCell>
        <mxCell id="pGYjlj7JNuYmJzxzHvzT-2" value="" style="shape=mxgraph.cisco.computers_and_peripherals.macintosh;sketch=0;html=1;pointerEvents=1;dashed=0;fillColor=#036897;strokeColor=#ffffff;strokeWidth=2;verticalLabelPosition=bottom;verticalAlign=top;align=center;outlineConnect=0;" parent="1" vertex="1">
          <mxGeometry x="880" y="30" width="99" height="64" as="geometry" />
        </mxCell>
        <mxCell id="pGYjlj7JNuYmJzxzHvzT-3" value="" style="shape=mxgraph.cisco.computers_and_peripherals.macintosh;sketch=0;html=1;pointerEvents=1;dashed=0;fillColor=#036897;strokeColor=#ffffff;strokeWidth=2;verticalLabelPosition=bottom;verticalAlign=top;align=center;outlineConnect=0;" parent="1" vertex="1">
          <mxGeometry x="880" y="330" width="99" height="64" as="geometry" />
        </mxCell>
        <mxCell id="pGYjlj7JNuYmJzxzHvzT-4" value="" style="endArrow=classic;html=1;rounded=0;fillColor=#FF0D0D;shape=link;entryX=1;entryY=0;entryDx=0;entryDy=0;entryPerimeter=0;" parent="1" source="pGYjlj7JNuYmJzxzHvzT-2" target="pGYjlj7JNuYmJzxzHvzT-8" edge="1">
          <mxGeometry width="50" height="50" relative="1" as="geometry">
            <mxPoint x="970" y="104.00000000000006" as="sourcePoint" />
            <mxPoint x="800" y="200" as="targetPoint" />
          </mxGeometry>
        </mxCell>
        <mxCell id="pGYjlj7JNuYmJzxzHvzT-5" value="" style="endArrow=classic;html=1;rounded=0;fillColor=#FF0D0D;shape=link;exitX=0.87;exitY=0.74;exitDx=0;exitDy=0;exitPerimeter=0;" parent="1" source="pGYjlj7JNuYmJzxzHvzT-8" target="pGYjlj7JNuYmJzxzHvzT-3" edge="1">
          <mxGeometry width="50" height="50" relative="1" as="geometry">
            <mxPoint x="810" y="240" as="sourcePoint" />
            <mxPoint x="1035.6895719844356" y="330.8" as="targetPoint" />
          </mxGeometry>
        </mxCell>
        <mxCell id="pGYjlj7JNuYmJzxzHvzT-6" value=".80.2" style="text;html=1;resizable=0;autosize=1;align=center;verticalAlign=middle;points=[];fillColor=none;strokeColor=none;rounded=0;" parent="1" vertex="1">
          <mxGeometry x="840" y="310" width="40" height="20" as="geometry" />
        </mxCell>
        <mxCell id="pGYjlj7JNuYmJzxzHvzT-7" value=".80.1" style="text;html=1;resizable=0;autosize=1;align=center;verticalAlign=middle;points=[];fillColor=none;strokeColor=none;rounded=0;" parent="1" vertex="1">
          <mxGeometry x="840" y="84" width="40" height="20" as="geometry" />
        </mxCell>
        <mxCell id="pGYjlj7JNuYmJzxzHvzT-8" value="" style="shape=mxgraph.cisco.switches.workgroup_switch;sketch=0;html=1;pointerEvents=1;dashed=0;fillColor=#036897;strokeColor=#ffffff;strokeWidth=2;verticalLabelPosition=bottom;verticalAlign=top;align=center;outlineConnect=0;" parent="1" vertex="1">
          <mxGeometry x="750" y="197.5" width="100" height="50" as="geometry" />
        </mxCell>
        <mxCell id="pGYjlj7JNuYmJzxzHvzT-10" value="" style="shape=mxgraph.cisco.routers.router;sketch=0;html=1;pointerEvents=1;dashed=0;fillColor=#036897;strokeColor=#ffffff;strokeWidth=2;verticalLabelPosition=bottom;verticalAlign=top;align=center;outlineConnect=0;" parent="1" vertex="1">
          <mxGeometry x="590" y="194.5" width="78" height="53" as="geometry" />
        </mxCell>
        <mxCell id="pGYjlj7JNuYmJzxzHvzT-11" value="" style="endArrow=classic;html=1;rounded=0;fillColor=#FF0D0D;shape=link;exitX=1;exitY=0.5;exitDx=0;exitDy=0;exitPerimeter=0;entryX=0;entryY=0.5;entryDx=0;entryDy=0;entryPerimeter=0;" parent="1" source="pGYjlj7JNuYmJzxzHvzT-10" target="pGYjlj7JNuYmJzxzHvzT-8" edge="1">
          <mxGeometry width="50" height="50" relative="1" as="geometry">
            <mxPoint x="668" y="220.25" as="sourcePoint" />
            <mxPoint x="750" y="221.75" as="targetPoint" />
          </mxGeometry>
        </mxCell>
        <mxCell id="pGYjlj7JNuYmJzxzHvzT-12" value=".255.254" style="text;html=1;resizable=0;autosize=1;align=center;verticalAlign=middle;points=[];fillColor=none;strokeColor=none;rounded=0;" parent="1" vertex="1">
          <mxGeometry x="660" y="174.5" width="60" height="20" as="geometry" />
        </mxCell>
        <mxCell id="pGYjlj7JNuYmJzxzHvzT-14" value="10.202.0.191" style="text;html=1;align=center;verticalAlign=middle;resizable=0;points=[];autosize=1;strokeColor=none;fillColor=none;" parent="1" vertex="1">
          <mxGeometry x="510" y="177.5" width="90" height="20" as="geometry" />
        </mxCell>
        <mxCell id="pGYjlj7JNuYmJzxzHvzT-15" value="192.168.80.XX" style="text;html=1;resizable=0;autosize=1;align=center;verticalAlign=middle;points=[];fillColor=none;strokeColor=none;rounded=0;" parent="1" vertex="1">
          <mxGeometry x="750" y="140" width="90" height="20" as="geometry" />
        </mxCell>
        <mxCell id="pGYjlj7JNuYmJzxzHvzT-16" value="&lt;font style=&quot;font-size: 18px&quot;&gt;Mon réseau&lt;/font&gt;" style="text;html=1;align=center;verticalAlign=middle;resizable=0;points=[];autosize=1;strokeColor=none;fillColor=none;" parent="1" vertex="1">
          <mxGeometry x="195" y="50" width="110" height="20" as="geometry" />
        </mxCell>
        <mxCell id="pGYjlj7JNuYmJzxzHvzT-17" value="&lt;font style=&quot;font-size: 18px&quot;&gt;Réseau d&#39;un collègue&amp;nbsp;&lt;/font&gt;" style="text;html=1;align=center;verticalAlign=middle;resizable=0;points=[];autosize=1;strokeColor=none;fillColor=none;" parent="1" vertex="1">
          <mxGeometry x="575" y="50" width="190" height="20" as="geometry" />
        </mxCell>
      </root>
    </mxGraphModel>
  </diagram>
</mxfile>
